HIERARCHY
ROOT hip
{
  OFFSET 0 90.174 2.4664
  CHANNELS 6 Xposition Yposition Zposition Zrotation Xrotation Yrotation
  JOINT abdomen
  {
    OFFSET 0 -1.186 -1.5018
    CHANNELS 6 Xposition Yposition Zposition Zrotation Xrotation Yrotation
    JOINT abdomen2
    {
      OFFSET 0 9.964 0.2134
      CHANNELS 6 Xposition Yposition Zposition Zrotation Xrotation Yrotation
      JOINT chest
      {
        OFFSET 0 13.134 -3.2573
        CHANNELS 6 Xposition Yposition Zposition Zrotation Xrotation Yrotation
        JOINT neck
        {
          OFFSET 0 20.686 -1.6905
          CHANNELS 6 Xposition Yposition Zposition Zrotation Xrotation Yrotation
          JOINT head
          {
            OFFSET 0 7.238 -0.1237
            CHANNELS 6 Xposition Yposition Zposition Zrotation Xrotation Yrotation
            End Site
            {
              OFFSET 0 0 0
            }
          }
        }
        JOINT lCollar
        {
          OFFSET 1.7069 20.075 5.0056
          CHANNELS 6 Xposition Yposition Zposition Zrotation Xrotation Yrotation
          JOINT lShldr
          {
            OFFSET 13.6458 -0.047 -4.849
            CHANNELS 6 Xposition Yposition Zposition Zrotation Xrotation Yrotation
            JOINT lForeArm
            {
              OFFSET 28.3255 -0.9759 2.2888
              CHANNELS 6 Xposition Yposition Zposition Zrotation Xrotation Yrotation
              JOINT lHand
              {
                OFFSET 22.1583 -0.53 10.8316
                CHANNELS 6 Xposition Yposition Zposition Zrotation Xrotation Yrotation
                JOINT lThumb1
                {
                  OFFSET 0.786 0.112 2.5817
                  CHANNELS 6 Xposition Yposition Zposition Zrotation Xrotation Yrotation
                  JOINT lThumb2
                  {
                    OFFSET 0.3601 -0.878 4.2331
                    CHANNELS 6 Xposition Yposition Zposition Zrotation Xrotation Yrotation
                    JOINT lThumb2_End
                    {
                      OFFSET 1.8127 -1.216 2.2227
                      CHANNELS 6 Xposition Yposition Zposition Zrotation Xrotation Yrotation
                      End Site
                      {
                        OFFSET 0.0181 -0.0122 0.0222
                      }
                    }
                  }
                }
                JOINT lCarpal1
                {
                  OFFSET 0.9571 1.114 1.7695
                  CHANNELS 6 Xposition Yposition Zposition Zrotation Xrotation Yrotation
                  JOINT lIndex1
                  {
                    OFFSET 4.1246 0.487 4.1451
                    CHANNELS 6 Xposition Yposition Zposition Zrotation Xrotation Yrotation
                    JOINT lIndex2
                    {
                      OFFSET 3.4052 -1.454 2.7682
                      CHANNELS 6 Xposition Yposition Zposition Zrotation Xrotation Yrotation
                      JOINT lIndex2_End
                      {
                        OFFSET 1.4531 -1.795 1.2713
                        CHANNELS 6 Xposition Yposition Zposition Zrotation Xrotation Yrotation
                        End Site
                        {
                          OFFSET 0.0145 -0.0179 0.0127
                        }
                      }
                    }
                  }
                  JOINT lMid1
                  {
                    OFFSET 5.6954 0.21 2.1184
                    CHANNELS 6 Xposition Yposition Zposition Zrotation Xrotation Yrotation
                    JOINT lMid2
                    {
                      OFFSET 3.9766 -1.54 2.3863
                      CHANNELS 6 Xposition Yposition Zposition Zrotation Xrotation Yrotation
                      JOINT lMid2_End
                      {
                        OFFSET 1.4042 -1.926 1.125
                        CHANNELS 6 Xposition Yposition Zposition Zrotation Xrotation Yrotation
                        End Site
                        {
                          OFFSET 0.014 -0.0193 0.0113
                        }
                      }
                    }
                  }
                }
                JOINT lCarpal2
                {
                  OFFSET 2.0956 0.66 -0.3894
                  CHANNELS 6 Xposition Yposition Zposition Zrotation Xrotation Yrotation
                  JOINT lRing1
                  {
                    OFFSET 5.0395 -0.09 2.4971
                    CHANNELS 6 Xposition Yposition Zposition Zrotation Xrotation Yrotation
                    JOINT lRing2
                    {
                      OFFSET 3.7921 -1.552 1.4806
                      CHANNELS 6 Xposition Yposition Zposition Zrotation Xrotation Yrotation
                      JOINT lRing2_End
                      {
                        OFFSET 1.4655 -1.808 0.9609
                        CHANNELS 6 Xposition Yposition Zposition Zrotation Xrotation Yrotation
                        End Site
                        {
                          OFFSET 0.0147 -0.0181 0.0096
                        }
                      }
                    }
                  }
                  JOINT lPinky1
                  {
                    OFFSET 4.9141 -1.269 0.3591
                    CHANNELS 6 Xposition Yposition Zposition Zrotation Xrotation Yrotation
                    JOINT lPinky2
                    {
                      OFFSET 3.1477 -1.685 0.8462
                      CHANNELS 6 Xposition Yposition Zposition Zrotation Xrotation Yrotation
                      JOINT lPinky2_End
                      {
                        OFFSET 0.8055 -1.585 0.7955
                        CHANNELS 6 Xposition Yposition Zposition Zrotation Xrotation Yrotation
                        End Site
                        {
                          OFFSET 0.0081 -0.0158 0.008
                        }
                      }
                    }
                  }
                }
              }
            }
          }
        }
        JOINT rCollar
        {
          OFFSET -1.7069 20.075 5.0056
          CHANNELS 6 Xposition Yposition Zposition Zrotation Xrotation Yrotation
          JOINT rShldr
          {
            OFFSET -13.6458 -0.047 -4.849
            CHANNELS 6 Xposition Yposition Zposition Zrotation Xrotation Yrotation
            JOINT rForeArm
            {
              OFFSET -28.3255 -0.9759 2.2888
              CHANNELS 6 Xposition Yposition Zposition Zrotation Xrotation Yrotation
              JOINT rHand
              {
                OFFSET -22.1583 -0.53 10.8316
                CHANNELS 6 Xposition Yposition Zposition Zrotation Xrotation Yrotation
                JOINT rThumb1
                {
                  OFFSET -0.786 0.112 2.5817
                  CHANNELS 6 Xposition Yposition Zposition Zrotation Xrotation Yrotation
                  JOINT rThumb2
                  {
                    OFFSET -0.3601 -0.878 4.2331
                    CHANNELS 6 Xposition Yposition Zposition Zrotation Xrotation Yrotation
                    JOINT rThumb2_End
                    {
                      OFFSET -1.8127 -1.216 2.2227
                      CHANNELS 6 Xposition Yposition Zposition Zrotation Xrotation Yrotation
                      End Site
                      {
                        OFFSET -0.0181 -0.0122 0.0222
                      }
                    }
                  }
                }
                JOINT rCarpal1
                {
                  OFFSET -0.9571 1.114 1.7695
                  CHANNELS 6 Xposition Yposition Zposition Zrotation Xrotation Yrotation
                  JOINT rIndex1
                  {
                    OFFSET -4.1246 0.487 4.1451
                    CHANNELS 6 Xposition Yposition Zposition Zrotation Xrotation Yrotation
                    JOINT rIndex2
                    {
                      OFFSET -3.4052 -1.454 2.7682
                      CHANNELS 6 Xposition Yposition Zposition Zrotation Xrotation Yrotation
                      JOINT rIndex2_End
                      {
                        OFFSET -1.4531 -1.795 1.2713
                        CHANNELS 6 Xposition Yposition Zposition Zrotation Xrotation Yrotation
                        End Site
                        {
                          OFFSET -0.0145 -0.018 0.0127
                        }
                      }
                    }
                  }
                  JOINT rMid1
                  {
                    OFFSET -5.6954 0.21 2.1184
                    CHANNELS 6 Xposition Yposition Zposition Zrotation Xrotation Yrotation
                    JOINT rMid2
                    {
                      OFFSET -3.9766 -1.54 2.3863
                      CHANNELS 6 Xposition Yposition Zposition Zrotation Xrotation Yrotation
                      JOINT rMid2_End
                      {
                        OFFSET -1.4042 -1.926 1.125
                        CHANNELS 6 Xposition Yposition Zposition Zrotation Xrotation Yrotation
                        End Site
                        {
                          OFFSET -0.014 -0.0193 0.0113
                        }
                      }
                    }
                  }
                }
                JOINT rCarpal2
                {
                  OFFSET -2.0956 0.66 -0.3894
                  CHANNELS 6 Xposition Yposition Zposition Zrotation Xrotation Yrotation
                  JOINT rRing1
                  {
                    OFFSET -5.0395 -0.09 2.4971
                    CHANNELS 6 Xposition Yposition Zposition Zrotation Xrotation Yrotation
                    JOINT rRing2
                    {
                      OFFSET -3.7921 -1.552 1.4806
                      CHANNELS 6 Xposition Yposition Zposition Zrotation Xrotation Yrotation
                      JOINT rRing2_End
                      {
                        OFFSET -1.4655 -1.808 0.9609
                        CHANNELS 6 Xposition Yposition Zposition Zrotation Xrotation Yrotation
                        End Site
                        {
                          OFFSET -0.0147 -0.0181 0.0096
                        }
                      }
                    }
                  }
                  JOINT rPinky1
                  {
                    OFFSET -4.9141 -1.269 0.3592
                    CHANNELS 6 Xposition Yposition Zposition Zrotation Xrotation Yrotation
                    JOINT rPinky2
                    {
                      OFFSET -3.1477 -1.685 0.8462
                      CHANNELS 6 Xposition Yposition Zposition Zrotation Xrotation Yrotation
                      JOINT rPinky2_End
                      {
                        OFFSET -0.8055 -1.585 0.7955
                        CHANNELS 6 Xposition Yposition Zposition Zrotation Xrotation Yrotation
                        End Site
                        {
                          OFFSET -0.0081 -0.0158 0.008
                        }
                      }
                    }
                  }
                }
              }
            }
          }
        }
      }
    }
  }
  JOINT lThigh
  {
    OFFSET 8.367 -8.2066 0.5982
    CHANNELS 6 Xposition Yposition Zposition Zrotation Xrotation Yrotation
    JOINT lShin
    {
      OFFSET 2.1923 -43.463 -0.4932
      CHANNELS 6 Xposition Yposition Zposition Zrotation Xrotation Yrotation
      JOINT lFoot
      {
        OFFSET 0.7333 -45.8593 -2.6451
        CHANNELS 6 Xposition Yposition Zposition Zrotation Xrotation Yrotation
        End Site
        {
          OFFSET 2.6618 -4.2699 12.3931
        }
      }
    }
  }
  JOINT rThigh
  {
    OFFSET -8.367 -8.2066 0.5982
    CHANNELS 6 Xposition Yposition Zposition Zrotation Xrotation Yrotation
    JOINT rShin
    {
      OFFSET -2.1923 -43.463 -0.4931
      CHANNELS 6 Xposition Yposition Zposition Zrotation Xrotation Yrotation
      JOINT rFoot
      {
        OFFSET -0.7333 -45.8593 -2.6451
        CHANNELS 6 Xposition Yposition Zposition Zrotation Xrotation Yrotation
        End Site
        {
          OFFSET -2.6618 -4.2699 12.3931
        }
      }
    }
  }
}
MOTION
Frames:	4
Frame Time:	0.0333333
0 90.174 2.4664 0 0 -0 0 -1.186 -1.5018 0 0 -0 0 9.964 0.2134 0 0 -0 0 13.134 -3.2573 0 0 -0 0 20.686 -1.6905 0 0 -0 0 7.238 -0.1237 0 0 -0 1.7069 20.075 5.0056 0 0 -0 13.6458 -0.047 -4.849 1.66051 0.0835086 5.75766 28.3255 -0.9759 2.2888 -0.0175111 0.895433 15.7816 22.1583 -0.53 10.8316 7.95139e-016 -1.98785e-016 -0 0.786 0.112 2.5817 5.46658e-016 -3.97569e-016 -0 0.3601 -0.878 4.2331 5.96354e-016 0 -0 1.8127 -1.216 2.2227 3.97569e-016 1.98785e-016 9.54166e-015 0.9571 1.114 1.7695 1.49089e-016 -3.97569e-016 -0 4.1246 0.487 4.1451 6.4605e-016 0 3.18055e-015 3.4052 -1.454 2.7682 5.96354e-016 0 3.18055e-015 1.4531 -1.795 1.2713 8.94531e-016 -1.98785e-016 6.36111e-015 5.6954 0.21 2.1184 6.4605e-016 0 3.18055e-015 3.9766 -1.54 2.3863 5.96354e-016 0 3.18055e-015 1.4042 -1.926 1.125 8.94531e-016 -1.98785e-016 6.36111e-015 2.0956 0.66 -0.3894 1.49089e-016 -3.97569e-016 -0 5.0395 -0.09 2.4971 6.4605e-016 0 3.18055e-015 3.7921 -1.552 1.4806 5.96354e-016 0 3.18055e-015 1.4655 -1.808 0.9609 8.94531e-016 -1.98785e-016 6.36111e-015 4.9141 -1.269 0.3591 6.4605e-016 0 3.18055e-015 3.1477 -1.685 0.8462 5.96354e-016 0 3.18055e-015 0.8055 -1.585 0.7955 8.94531e-016 -1.98785e-016 6.36111e-015 -1.7069 20.075 5.0056 0 0 -0 -13.6458 -0.047 -4.849 -1.4496 0.0636048 -5.0245 -28.3255 -0.9759 2.2888 -1.74811 1.20616 -16.8394 -22.1583 -0.53 10.8316 -1.19271e-015 1.98785e-016 -3.18055e-015 -0.786 0.112 2.5817 -3.97569e-016 1.98785e-016 -3.18055e-015 -0.3601 -0.878 4.2331 -2.98177e-016 1.98785e-016 -3.18055e-015 -1.8127 -1.216 2.2227 -2.98177e-016 3.97569e-016 -0 -0.9571 1.114 1.7695 4.96962e-016 0 -6.36111e-015 -4.1246 0.487 4.1451 -9.93923e-017 3.97569e-016 -0 -3.4052 -1.454 2.7682 -8.94531e-016 5.96354e-016 -0 -1.4531 -1.795 1.2713 -3.97569e-016 3.97569e-016 -0 -5.6954 0.21 2.1184 -9.93923e-017 3.97569e-016 -0 -3.9766 -1.54 2.3863 -8.94531e-016 5.96354e-016 -0 -1.4042 -1.926 1.125 -3.97569e-016 3.97569e-016 -0 -2.0956 0.66 -0.3894 4.96962e-016 0 -6.36111e-015 -5.0395 -0.09 2.4971 -9.93923e-017 3.97569e-016 -0 -3.7921 -1.552 1.4806 -8.94531e-016 5.96354e-016 -0 -1.4655 -1.808 0.9609 -3.97569e-016 3.97569e-016 -0 -4.9141 -1.269 0.3592 -9.93923e-017 3.97569e-016 -0 -3.1477 -1.685 0.8462 -8.94531e-016 5.96354e-016 -0 -0.8055 -1.585 0.7955 -3.97569e-016 3.97569e-016 -0 8.367 -8.2066 0.5982 -4.66115 -1.03232 0.120763 2.1923 -43.463 -0.4932 0.00990601 1.55097 0.177175 0.7333 -45.8593 -2.6451 4.65196 -0.54114 -0.255042 -8.367 -8.2066 0.5982 4.66115 -1.03222 -0.120763 -2.1923 -43.463 -0.4931 -0.00990459 1.5509 -0.177176 -0.7333 -45.8593 -2.6451 -4.65196 -0.541171 0.255041 
6.57691 32.2802 -20.5992 0 0 -67.0038 3.55271e-015 -1.186 -1.5018 -0.101843 2.41872 5.68202 0 9.964 0.2134 -0.443705 4.81542 11.3835 -1.77636e-015 13.134 -3.2573 -0.443705 4.81542 11.3835 0 20.686 -1.6905 -0.155371 0.732713 -0.0427016 0 7.238 -0.1237 0.019226 -0.152117 -0.00522411 1.7069 20.075 5.0056 -13.8883 6.10095 -60.4684 13.6458 -0.047 -4.849 -8.49486 4.99611 -26.5565 28.3255 -0.9759 2.2888 -4.93703 8.40066 -26.157 22.1583 -0.53 10.8316 13.5532 28.1576 -3.98426 0.786 0.112 2.5817 -4.17448e-015 7.95139e-016 3.18055e-015 0.3601 -0.878 4.2331 -5.76476e-015 -2.38542e-015 -0 1.8127 -1.216 2.2227 -1.98785e-015 -1.59028e-015 6.36111e-015 0.9571 1.114 1.7695 -9.93923e-016 1.59028e-015 3.18055e-015 4.1246 0.487 4.1451 -3.77691e-015 -1.59028e-015 6.36111e-015 3.4052 -1.454 2.7682 2.98177e-015 -1.59028e-015 6.36111e-015 1.4531 -1.795 1.2713 3.97569e-016 -2.38542e-015 6.36111e-015 5.6954 0.21 2.1184 -3.77691e-015 -1.59028e-015 6.36111e-015 3.9766 -1.54 2.3863 2.98177e-015 -1.59028e-015 6.36111e-015 1.4042 -1.926 1.125 3.97569e-016 -2.38542e-015 6.36111e-015 2.0956 0.66 -0.3894 -9.93923e-016 1.59028e-015 3.18055e-015 5.0395 -0.09 2.4971 -3.77691e-015 -1.59028e-015 6.36111e-015 3.7921 -1.552 1.4806 2.98177e-015 -1.59028e-015 6.36111e-015 1.4655 -1.808 0.9609 3.97569e-016 -2.38542e-015 6.36111e-015 4.9141 -1.269 0.3591 -3.77691e-015 -1.59028e-015 6.36111e-015 3.1477 -1.685 0.8462 2.98177e-015 -1.59028e-015 6.36111e-015 0.8055 -1.585 0.7955 3.97569e-016 -2.38542e-015 6.36111e-015 -1.7069 20.075 5.0056 31.0643 3.39898 19.6951 -13.6458 -0.047 -4.849 17.7439 3.38394 18.072 -28.3255 -0.9759 2.2888 2.36277 -0.0671393 6.97468 -22.1583 -0.53 10.8316 -23.7284 -35.5104 -18.9707 -0.786 0.112 2.5817 -3.36038e-006 -5.4287e-006 -2.05495e-006 -0.3601 -0.878 4.2331 3.36038e-006 5.4287e-006 2.05495e-006 -1.8127 -1.216 2.2227 -4.96535e-006 -2.30857e-006 8.24078e-007 -0.9571 1.114 1.7695 7.95139e-016 3.18055e-015 3.18055e-015 -4.1246 0.487 4.1451 -3.36038e-006 -5.4287e-006 -2.05495e-006 -3.4052 -1.454 2.7682 3.36038e-006 5.4287e-006 2.05495e-006 -1.4531 -1.795 1.2713 -4.96535e-006 -2.30857e-006 8.24078e-007 -5.6954 0.21 2.1184 -3.36038e-006 -5.4287e-006 -2.05495e-006 -3.9766 -1.54 2.3863 3.36038e-006 5.4287e-006 2.05495e-006 -1.4042 -1.926 1.125 -4.96535e-006 -2.30857e-006 8.24078e-007 -2.0956 0.66 -0.3894 7.95139e-016 3.18055e-015 3.18055e-015 -5.0395 -0.09 2.4971 -3.36038e-006 -5.4287e-006 -2.05495e-006 -3.7921 -1.552 1.4806 3.36038e-006 5.4287e-006 2.05495e-006 -1.4655 -1.808 0.9609 -4.96535e-006 -2.30857e-006 8.24078e-007 -4.9141 -1.269 0.3592 -3.36038e-006 -5.4287e-006 -2.05495e-006 -3.1477 -1.685 0.8462 3.36038e-006 5.4287e-006 2.05495e-006 -0.8055 -1.585 0.7955 -4.96535e-006 -2.30857e-006 8.24078e-007 8.367 -8.2066 0.5982 65.7536 -28.3422 65.9358 2.1923 -43.463 -0.4932 171.898 35.6359 -162.372 0.7333 -45.8593 -2.6451 3.42983 68.5302 13.2727 -8.367 -8.2066 0.5982 -23.4653 -52.7902 -31.6403 -2.1923 -43.463 -0.4931 -158.677 37.149 160.398 -0.7333 -45.8593 -2.6451 -2.12904 65.3833 -11.2142 
6.57691 32.2802 -20.5992 0 0 -67.0038 3.55271e-015 -1.186 -1.5018 -0.0847951 2.38269 5.67856 1.77636e-015 9.964 0.2134 -0.405896 4.74525 11.3753 3.55271e-015 13.134 -3.2573 -0.405897 4.74525 11.3753 0 20.686 -1.6905 -0.314574 1.45789 -0.0449717 0 7.238 -0.1237 0.0409198 -0.301583 -0.00626755 1.7069 20.075 5.0056 -13.8399 6.21348 -60.1352 13.6458 -0.047 -4.849 -8.49486 4.99611 -26.5565 28.3255 -0.9759 2.2888 -4.97415 8.43331 -26.3572 22.1583 -0.53 10.8316 13.2514 28.3022 -3.8004 0.786 0.112 2.5817 6.55989e-015 -7.95139e-016 6.36111e-015 0.3601 -0.878 4.2331 1.6595e-006 -2.82068e-007 1.17333e-007 1.8127 -1.216 2.2227 -2.5842e-015 7.95139e-016 -0 0.9571 1.114 1.7695 3.57812e-015 -1.59028e-015 3.18055e-015 4.1246 0.487 4.1451 -7.95139e-016 1.59028e-015 9.54166e-015 3.4052 -1.454 2.7682 1.6595e-006 -2.82068e-007 1.17333e-007 1.4531 -1.795 1.2713 5.96354e-016 -2.38542e-015 6.36111e-015 5.6954 0.21 2.1184 -7.95139e-016 1.59028e-015 9.54166e-015 3.9766 -1.54 2.3863 1.6595e-006 -2.82068e-007 1.17333e-007 1.4042 -1.926 1.125 5.96354e-016 -2.38542e-015 6.36111e-015 2.0956 0.66 -0.3894 3.57812e-015 -1.59028e-015 3.18055e-015 5.0395 -0.09 2.4971 -7.95139e-016 1.59028e-015 9.54166e-015 3.7921 -1.552 1.4806 1.6595e-006 -2.82068e-007 1.17333e-007 1.4655 -1.808 0.9609 5.96354e-016 -2.38542e-015 6.36111e-015 4.9141 -1.269 0.3591 -7.95139e-016 1.59028e-015 9.54166e-015 3.1477 -1.685 0.8462 1.6595e-006 -2.82068e-007 1.17333e-007 0.8055 -1.585 0.7955 5.96354e-016 -2.38542e-015 6.36111e-015 -1.7069 20.075 5.0056 31.0511 3.42171 19.5395 -13.6458 -0.047 -4.849 17.9348 3.4571 18.1832 -28.3255 -0.9759 2.2888 3.37315 0.442709 7.20211 -22.1583 -0.53 10.8316 -26.4657 -35.3611 -19.945 -0.786 0.112 2.5817 -7.86466e-007 1.42571e-007 1.72095e-007 -0.3601 -0.878 4.2331 -6.39377e-007 -5.45981e-007 -1.44097e-006 -1.8127 -1.216 2.2227 -4.77083e-015 3.18055e-015 2.38542e-015 -0.9571 1.114 1.7695 1.59028e-015 3.18055e-015 -3.18055e-015 -4.1246 0.487 4.1451 -7.86466e-007 1.42571e-007 1.72095e-007 -3.4052 -1.454 2.7682 -6.39377e-007 -5.45981e-007 -1.44097e-006 -1.4531 -1.795 1.2713 4.77083e-015 -6.36111e-015 3.18055e-015 -5.6954 0.21 2.1184 -7.86466e-007 1.42571e-007 1.72095e-007 -3.9766 -1.54 2.3863 -6.39377e-007 -5.45981e-007 -1.44097e-006 -1.4042 -1.926 1.125 4.77083e-015 -6.36111e-015 3.18055e-015 -2.0956 0.66 -0.3894 1.59028e-015 3.18055e-015 -3.18055e-015 -5.0395 -0.09 2.4971 -7.86466e-007 1.42571e-007 1.72095e-007 -3.7921 -1.552 1.4806 -6.39377e-007 -5.45981e-007 -1.44097e-006 -1.4655 -1.808 0.9609 4.77083e-015 -6.36111e-015 3.18055e-015 -4.9141 -1.269 0.3592 -7.86466e-007 1.42571e-007 1.72095e-007 -3.1477 -1.685 0.8462 -6.39377e-007 -5.45981e-007 -1.44097e-006 -0.8055 -1.585 0.7955 4.77083e-015 -6.36111e-015 3.18055e-015 8.367 -8.2066 0.5982 65.7538 -28.3423 65.9358 2.1923 -43.463 -0.4932 171.898 35.6358 -162.372 0.7333 -45.8593 -2.6451 3.4299 68.5303 13.2726 -8.367 -8.2066 0.5982 -23.4652 -52.7903 -31.6403 -2.1923 -43.463 -0.4931 -158.677 37.149 160.398 -0.7333 -45.8593 -2.6451 -2.12903 65.3833 -11.2142 
6.57691 32.2802 -20.5992 0 0 -67.0038 0 -1.186 -1.5018 -0.0677717 2.34664 5.67494 0 9.964 0.2134 -0.368138 4.67505 11.3669 -1.77636e-015 13.134 -3.2573 -0.36814 4.67505 11.3669 0 20.686 -1.6905 -0.473975 2.18419 -0.0452197 0 7.238 -0.1237 0.0626124 -0.451049 -0.00726522 1.7069 20.075 5.0056 -13.7922 6.32631 -59.8021 13.6458 -0.047 -4.849 -8.49485 4.99612 -26.5565 28.3255 -0.9759 2.2888 -5.01115 8.4661 -26.5573 22.1583 -0.53 10.8316 12.9486 28.446 -3.61541 0.786 0.112 2.5817 -2.78299e-015 0 -0 0.3601 -0.878 4.2331 4.37326e-015 5.56597e-015 -3.18055e-015 1.8127 -1.216 2.2227 7.95139e-016 1.59028e-015 -3.18055e-015 0.9571 1.114 1.7695 -3.18055e-015 -1.59028e-015 3.18055e-015 4.1246 0.487 4.1451 3.18055e-015 5.56597e-015 6.36111e-015 3.4052 -1.454 2.7682 1.19271e-015 7.95139e-016 -0 1.4531 -1.795 1.2713 -2.5842e-015 2.38542e-015 -6.36111e-015 5.6954 0.21 2.1184 3.18055e-015 5.56597e-015 6.36111e-015 3.9766 -1.54 2.3863 1.19271e-015 7.95139e-016 -0 1.4042 -1.926 1.125 -2.5842e-015 2.38542e-015 -6.36111e-015 2.0956 0.66 -0.3894 -3.18055e-015 -1.59028e-015 3.18055e-015 5.0395 -0.09 2.4971 3.18055e-015 5.56597e-015 6.36111e-015 3.7921 -1.552 1.4806 1.19271e-015 7.95139e-016 -0 1.4655 -1.808 0.9609 -2.5842e-015 2.38542e-015 -6.36111e-015 4.9141 -1.269 0.3591 3.18055e-015 5.56597e-015 6.36111e-015 3.1477 -1.685 0.8462 1.19271e-015 7.95139e-016 -0 0.8055 -1.585 0.7955 -2.5842e-015 2.38542e-015 -6.36111e-015 -1.7069 20.075 5.0056 31.038 3.44445 19.3838 -13.6458 -0.047 -4.849 18.1255 3.53062 18.2941 -28.3255 -0.9759 2.2888 4.38275 0.957054 7.42079 -22.1583 -0.53 10.8316 -29.2064 -35.1731 -20.9118 -0.786 0.112 2.5817 -5.97393e-006 5.37819e-006 3.326e-006 -0.3601 -0.878 4.2331 -6.39014e-007 -5.30577e-007 -1.44612e-006 -1.8127 -1.216 2.2227 -9.54166e-015 3.18055e-015 1.59028e-014 -0.9571 1.114 1.7695 4.77083e-015 -3.18055e-015 -2.38542e-015 -4.1246 0.487 4.1451 -5.97393e-006 5.37819e-006 3.326e-006 -3.4052 -1.454 2.7682 -6.39014e-007 -5.30577e-007 -1.44612e-006 -1.4531 -1.795 1.2713 -8.74653e-015 -3.18055e-015 1.11319e-014 -5.6954 0.21 2.1184 -5.97393e-006 5.37819e-006 3.326e-006 -3.9766 -1.54 2.3863 -6.39014e-007 -5.30577e-007 -1.44612e-006 -1.4042 -1.926 1.125 -8.74653e-015 -3.18055e-015 1.11319e-014 -2.0956 0.66 -0.3894 4.77083e-015 -3.18055e-015 -2.38542e-015 -5.0395 -0.09 2.4971 -5.97393e-006 5.37819e-006 3.326e-006 -3.7921 -1.552 1.4806 -6.39014e-007 -5.30577e-007 -1.44612e-006 -1.4655 -1.808 0.9609 -8.74653e-015 -3.18055e-015 1.11319e-014 -4.9141 -1.269 0.3592 -5.97393e-006 5.37819e-006 3.326e-006 -3.1477 -1.685 0.8462 -6.39014e-007 -5.30577e-007 -1.44612e-006 -0.8055 -1.585 0.7955 -8.74653e-015 -3.18055e-015 1.11319e-014 8.367 -8.2066 0.5982 65.7539 -28.3419 65.9359 2.1923 -43.463 -0.4932 171.898 35.6358 -162.372 0.7333 -45.8593 -2.6451 3.42986 68.5303 13.2727 -8.367 -8.2066 0.5982 -23.4653 -52.7902 -31.6403 -2.1923 -43.463 -0.4931 -158.677 37.149 160.398 -0.7333 -45.8593 -2.6451 -2.12903 65.3833 -11.2143 
